<mxfile host="app.diagrams.net" modified="2023-08-08T15:26:05.272Z" agent="Mozilla/5.0 (Macintosh; Intel Mac OS X 10.15; rv:109.0) Gecko/20100101 Firefox/115.0" etag="bM5dJiT9LqLb1wc7ph3V" version="21.6.6" type="device">
  <diagram name="Page-1" id="3UgDIWKXGhUSk_kXVFh9">
    <mxGraphModel dx="734" dy="475" grid="0" gridSize="10" guides="1" tooltips="1" connect="1" arrows="1" fold="1" page="1" pageScale="1" pageWidth="850" pageHeight="1100" math="1" shadow="0">
      <root>
        <mxCell id="0" />
        <mxCell id="1" parent="0" />
        <mxCell id="ORwjULsawUBXAMo33VZZ-5" value="" style="rounded=0;whiteSpace=wrap;html=1;fillColor=#f5f5f5;fontColor=#333333;strokeColor=#666666;" vertex="1" parent="1">
          <mxGeometry x="153" y="55.5" width="390" height="74" as="geometry" />
        </mxCell>
        <mxCell id="ORwjULsawUBXAMo33VZZ-37" value="" style="group" vertex="1" connectable="0" parent="1">
          <mxGeometry x="158.5" y="83" width="122" height="41" as="geometry" />
        </mxCell>
        <mxCell id="ORwjULsawUBXAMo33VZZ-30" value="" style="rounded=0;whiteSpace=wrap;html=1;" vertex="1" parent="ORwjULsawUBXAMo33VZZ-37">
          <mxGeometry width="122" height="41" as="geometry" />
        </mxCell>
        <mxCell id="ORwjULsawUBXAMo33VZZ-29" value="CG" style="rounded=1;whiteSpace=wrap;html=1;fillColor=#f5f5f5;fontColor=#333333;strokeColor=#666666;" vertex="1" parent="ORwjULsawUBXAMo33VZZ-37">
          <mxGeometry x="92.26250000000002" y="17.766666666666666" width="25.543750000000003" height="18.45" as="geometry" />
        </mxCell>
        <mxCell id="ORwjULsawUBXAMo33VZZ-31" value="&lt;b&gt;B&lt;sub&gt;1&lt;/sub&gt;&lt;/b&gt;" style="text;html=1;strokeColor=none;fillColor=none;align=center;verticalAlign=middle;whiteSpace=wrap;rounded=0;" vertex="1" parent="ORwjULsawUBXAMo33VZZ-37">
          <mxGeometry x="38.125" width="45.75" height="20.5" as="geometry" />
        </mxCell>
        <mxCell id="ORwjULsawUBXAMo33VZZ-32" value="m&lt;sub&gt;1&lt;/sub&gt;" style="rounded=1;whiteSpace=wrap;html=1;fillColor=#e1d5e7;strokeColor=#9673a6;" vertex="1" parent="ORwjULsawUBXAMo33VZZ-37">
          <mxGeometry x="3.8125" y="17.766666666666666" width="25.543750000000003" height="18.45" as="geometry" />
        </mxCell>
        <mxCell id="ORwjULsawUBXAMo33VZZ-34" value="..." style="rounded=1;whiteSpace=wrap;html=1;fillColor=#e1d5e7;strokeColor=#9673a6;" vertex="1" parent="ORwjULsawUBXAMo33VZZ-37">
          <mxGeometry x="32.978125000000006" y="17.766666666666666" width="25.543750000000003" height="18.45" as="geometry" />
        </mxCell>
        <mxCell id="ORwjULsawUBXAMo33VZZ-36" value="m&lt;sub&gt;n&lt;/sub&gt;" style="rounded=1;whiteSpace=wrap;html=1;fillColor=#e1d5e7;strokeColor=#9673a6;" vertex="1" parent="ORwjULsawUBXAMo33VZZ-37">
          <mxGeometry x="62.52500000000001" y="17.766666666666666" width="25.543750000000003" height="18.45" as="geometry" />
        </mxCell>
        <mxCell id="ORwjULsawUBXAMo33VZZ-46" value="" style="group" vertex="1" connectable="0" parent="1">
          <mxGeometry x="287" y="83" width="122" height="41" as="geometry" />
        </mxCell>
        <mxCell id="ORwjULsawUBXAMo33VZZ-47" value="" style="rounded=0;whiteSpace=wrap;html=1;" vertex="1" parent="ORwjULsawUBXAMo33VZZ-46">
          <mxGeometry width="122" height="41" as="geometry" />
        </mxCell>
        <mxCell id="ORwjULsawUBXAMo33VZZ-48" value="CG" style="rounded=1;whiteSpace=wrap;html=1;fillColor=#f5f5f5;fontColor=#333333;strokeColor=#666666;" vertex="1" parent="ORwjULsawUBXAMo33VZZ-46">
          <mxGeometry x="92.26250000000002" y="17.766666666666666" width="25.543750000000003" height="18.45" as="geometry" />
        </mxCell>
        <mxCell id="ORwjULsawUBXAMo33VZZ-49" value="&lt;b&gt;B&lt;sub&gt;...&lt;/sub&gt;&lt;/b&gt;" style="text;html=1;strokeColor=none;fillColor=none;align=center;verticalAlign=middle;whiteSpace=wrap;rounded=0;" vertex="1" parent="ORwjULsawUBXAMo33VZZ-46">
          <mxGeometry x="38.125" width="45.75" height="20.5" as="geometry" />
        </mxCell>
        <mxCell id="ORwjULsawUBXAMo33VZZ-50" value="m&lt;sub&gt;1&lt;/sub&gt;" style="rounded=1;whiteSpace=wrap;html=1;fillColor=#e1d5e7;strokeColor=#9673a6;" vertex="1" parent="ORwjULsawUBXAMo33VZZ-46">
          <mxGeometry x="3.8125" y="17.766666666666666" width="25.543750000000003" height="18.45" as="geometry" />
        </mxCell>
        <mxCell id="ORwjULsawUBXAMo33VZZ-51" value="..." style="rounded=1;whiteSpace=wrap;html=1;fillColor=#e1d5e7;strokeColor=#9673a6;" vertex="1" parent="ORwjULsawUBXAMo33VZZ-46">
          <mxGeometry x="32.978125000000006" y="17.766666666666666" width="25.543750000000003" height="18.45" as="geometry" />
        </mxCell>
        <mxCell id="ORwjULsawUBXAMo33VZZ-52" value="m&lt;sub&gt;n&lt;/sub&gt;" style="rounded=1;whiteSpace=wrap;html=1;fillColor=#e1d5e7;strokeColor=#9673a6;" vertex="1" parent="ORwjULsawUBXAMo33VZZ-46">
          <mxGeometry x="62.52500000000001" y="17.766666666666666" width="25.543750000000003" height="18.45" as="geometry" />
        </mxCell>
        <mxCell id="ORwjULsawUBXAMo33VZZ-53" value="" style="group" vertex="1" connectable="0" parent="1">
          <mxGeometry x="415" y="83" width="122" height="41" as="geometry" />
        </mxCell>
        <mxCell id="ORwjULsawUBXAMo33VZZ-54" value="" style="rounded=0;whiteSpace=wrap;html=1;" vertex="1" parent="ORwjULsawUBXAMo33VZZ-53">
          <mxGeometry width="122" height="41" as="geometry" />
        </mxCell>
        <mxCell id="ORwjULsawUBXAMo33VZZ-55" value="CG" style="rounded=1;whiteSpace=wrap;html=1;fillColor=#f5f5f5;fontColor=#333333;strokeColor=#666666;" vertex="1" parent="ORwjULsawUBXAMo33VZZ-53">
          <mxGeometry x="92.26250000000002" y="17.766666666666666" width="25.543750000000003" height="18.45" as="geometry" />
        </mxCell>
        <mxCell id="ORwjULsawUBXAMo33VZZ-56" value="&lt;b&gt;B&lt;sub&gt;n&lt;/sub&gt;&lt;/b&gt;" style="text;html=1;strokeColor=none;fillColor=none;align=center;verticalAlign=middle;whiteSpace=wrap;rounded=0;" vertex="1" parent="ORwjULsawUBXAMo33VZZ-53">
          <mxGeometry x="38.125" width="45.75" height="20.5" as="geometry" />
        </mxCell>
        <mxCell id="ORwjULsawUBXAMo33VZZ-57" value="m&lt;sub&gt;1&lt;/sub&gt;" style="rounded=1;whiteSpace=wrap;html=1;fillColor=#e1d5e7;strokeColor=#9673a6;" vertex="1" parent="ORwjULsawUBXAMo33VZZ-53">
          <mxGeometry x="3.8125" y="17.766666666666666" width="25.543750000000003" height="18.45" as="geometry" />
        </mxCell>
        <mxCell id="ORwjULsawUBXAMo33VZZ-58" value="..." style="rounded=1;whiteSpace=wrap;html=1;fillColor=#e1d5e7;strokeColor=#9673a6;" vertex="1" parent="ORwjULsawUBXAMo33VZZ-53">
          <mxGeometry x="32.978125000000006" y="17.766666666666666" width="25.543750000000003" height="18.45" as="geometry" />
        </mxCell>
        <mxCell id="ORwjULsawUBXAMo33VZZ-59" value="m&lt;sub&gt;n&lt;/sub&gt;" style="rounded=1;whiteSpace=wrap;html=1;fillColor=#e1d5e7;strokeColor=#9673a6;" vertex="1" parent="ORwjULsawUBXAMo33VZZ-53">
          <mxGeometry x="62.52500000000001" y="17.766666666666666" width="25.543750000000003" height="18.45" as="geometry" />
        </mxCell>
        <mxCell id="ORwjULsawUBXAMo33VZZ-61" value="&lt;b&gt;Benchmark Suite Data&lt;/b&gt;" style="text;html=1;strokeColor=none;fillColor=none;align=center;verticalAlign=middle;whiteSpace=wrap;rounded=0;" vertex="1" parent="1">
          <mxGeometry x="262" y="55" width="157" height="30" as="geometry" />
        </mxCell>
        <mxCell id="ORwjULsawUBXAMo33VZZ-62" value="Compute Benchmark Stabilities" style="rounded=0;whiteSpace=wrap;html=1;fillColor=#f5f5f5;fontColor=#333333;strokeColor=#666666;" vertex="1" parent="1">
          <mxGeometry x="153" y="138" width="391" height="36" as="geometry" />
        </mxCell>
        <mxCell id="ORwjULsawUBXAMo33VZZ-71" value="" style="rounded=0;whiteSpace=wrap;html=1;fillColor=#f5f5f5;fontColor=#333333;strokeColor=#666666;" vertex="1" parent="1">
          <mxGeometry x="153" y="183" width="391" height="152" as="geometry" />
        </mxCell>
        <mxCell id="ORwjULsawUBXAMo33VZZ-72" value="&lt;b&gt;Suite Reduction Algorithm&lt;br&gt;&lt;/b&gt;" style="text;html=1;strokeColor=none;fillColor=none;align=center;verticalAlign=middle;whiteSpace=wrap;rounded=0;" vertex="1" parent="1">
          <mxGeometry x="268" y="180" width="157" height="30" as="geometry" />
        </mxCell>
        <mxCell id="ORwjULsawUBXAMo33VZZ-73" value="Remove highly unstable benchmarks" style="rounded=0;whiteSpace=wrap;html=1;" vertex="1" parent="1">
          <mxGeometry x="162.5" y="206" width="372" height="18" as="geometry" />
        </mxCell>
        <mxCell id="ORwjULsawUBXAMo33VZZ-74" value="" style="rounded=0;whiteSpace=wrap;html=1;" vertex="1" parent="1">
          <mxGeometry x="162.5" y="231" width="372" height="96" as="geometry" />
        </mxCell>
        <mxCell id="ORwjULsawUBXAMo33VZZ-76" value="&lt;b&gt;While&lt;/b&gt;: full graph has remaining nodes" style="rounded=0;whiteSpace=wrap;html=1;" vertex="1" parent="1">
          <mxGeometry x="162.5" y="231" width="220.5" height="16" as="geometry" />
        </mxCell>
        <mxCell id="ORwjULsawUBXAMo33VZZ-78" value="&lt;div&gt;Select unused benchmark with highest coverage&lt;/div&gt;&lt;div&gt;&lt;b&gt;(tie-breaker: stability)&lt;/b&gt;&lt;/div&gt;" style="rounded=0;whiteSpace=wrap;html=1;fillColor=#e1d5e7;strokeColor=#9673a6;" vertex="1" parent="1">
          <mxGeometry x="178" y="258" width="341" height="32" as="geometry" />
        </mxCell>
        <mxCell id="ORwjULsawUBXAMo33VZZ-79" value="Remove benchmark from full graph" style="rounded=0;whiteSpace=wrap;html=1;fillColor=#e1d5e7;strokeColor=#9673a6;" vertex="1" parent="1">
          <mxGeometry x="178" y="297" width="341.5" height="23" as="geometry" />
        </mxCell>
      </root>
    </mxGraphModel>
  </diagram>
</mxfile>
